<?xml version="1.0" encoding="UTF-8"?>
<svg id="a" xmlns="http://www.w3.org/2000/svg" version="1.1" viewBox="0 0 871.8 651">
  <!-- Generator: Adobe Illustrator 29.0.0, SVG Export Plug-In . SVG Version: 2.1.0 Build 186)  -->
  <defs>
    <style>
      .st0 {
        fill: #fff;
      }

      .st1 {
        letter-spacing: 0em;
      }

      .st1, .st2, .st3, .st4, .st5, .st6, .st7 {
        fill: #6f003c;
        font-family: Inter-Medium, Inter;
        font-size: 71.5px;
        font-weight: 500;
        isolation: isolate;
      }

      .st2 {
        letter-spacing: 0em;
      }

      .st8 {
        fill: red;
      }

      .st3 {
        letter-spacing: 0em;
      }

      .st4 {
        letter-spacing: 0em;
      }

      .st5 {
        letter-spacing: 0em;
      }

      .st7 {
        letter-spacing: 0em;
      }
    </style>
  </defs>
  <rect class="st0" x="221.6" y="220.7" width="588.6" height="368.1"/>
  <polygon class="st8" points="761.6 286.2 61.6 409.6 61.6 185.1 761.6 61.6 761.6 286.2"/>
  <g>
    <path class="st0" d="M200.8,245.7c-5.3-6.5-11.9-11.3-20-14.4-8.1-3.1-17-3.8-26.8-2.1l-30.7,5.4v110.9c0,0,40.6-7.1,40.6-7.1,11-1.9,20.3-6.5,28.1-13.7,7.8-7.2,13.3-15.9,16.7-25.9,3.4-10,4.1-20.2,2.3-30.4-1.5-8.6-4.9-16.1-10.2-22.6h0ZM181.8,291.6c-1.5,5.5-4,10.2-7.7,14s-8,6.2-13,7.1l-10,1.8v-58.6c.1,0,6.4-1.1,6.4-1.1,4.2-.7,8.1-.3,11.7,1.3,3.6,1.6,6.5,4.1,8.8,7.5,2.2,3.4,3.7,7.2,4.5,11.6,1,5.4.7,10.9-.8,16.4h0Z"/>
    <polygon class="st0" points="221.4 247.3 221.6 328.2 247 323.7 246.8 242.8 221.4 247.3"/>
    <path class="st0" d="M242.9,210.1c-2.9-2.1-6.3-2.8-10-2.1-2.8.5-5.3,1.6-7.6,3.4s-3.8,3.9-4.7,6.5c-.9,2.6-1.1,5.2-.6,7.9.6,3.6,2.4,6.4,5.2,8.5s6.3,2.8,10.3,2.1c2.6-.4,4.9-1.6,7.2-3.3,2.2-1.8,3.8-3.9,4.8-6.6,1-2.6,1.2-5.3.7-8.1-.6-3.5-2.4-6.3-5.4-8.3h0Z"/>
    <polygon class="st0" points="393.3 187 365.3 192 365.4 302.9 436.8 290.2 436.9 262.7 393.4 270.3 393.3 187"/>
    <path class="st0" d="M553.3,204.4c-2.6-5-6.3-8.7-11.2-11.1-4.8-2.4-10.5-3-16.8-1.9-4.3.8-8,2.3-11.2,4.8-3.2,2.4-5.6,5.2-7.4,8.5h-.8c0,.1-3.6-7-3.6-7l-18.4,3.2.2,80.9,25.4-4.5v-46.4c-.1-2.4.3-4.7,1-6.9.7-2.1,1.9-3.8,3.6-5s3.4-1.9,5.2-2.3c2.5-.4,4.6-.2,6.5.8,1.8.9,3.2,2.4,4,4.5.8,2.1,1.3,4.4,1.5,6.9v44.5c0,0,26-4.6,26-4.6v-46.7c0-6.9-1.4-12.8-3.9-17.8h0Z"/>
    <polygon class="st0" points="639.5 173.6 610.8 178.6 593.3 213.5 593.4 151.8 568 156.2 568 267.1 593.3 262.7 593.3 227.4 613 259.2 641.4 254.2 616.9 217.1 639.5 173.6"/>
    <polygon class="st0" points="446.8 207.5 447 288.5 472.3 284 472.1 203.1 446.8 207.5"/>
    <polygon class="st0" points="494.2 139.5 426.7 178.9 457.8 195.8 494.2 139.5"/>
    <path class="st0" d="M713.5,201.9c0-2.5-.2-4.9-.6-7.3-1.2-6.9-3.8-12.7-7.9-17.5-4.1-4.8-9-8.2-14.6-10.2-5.7-2-11.7-2.4-18.1-1.3-8,1.4-14.9,4.9-20.8,10.4-5.9,5.5-10.1,12.2-12.6,20-2.5,7.8-3.1,15.5-1.8,23.1,1.2,7.1,3.9,13.1,8,18.2s9.1,8.7,14.9,10.9c5.8,2.2,12.2,2.7,19.2,1.4,5.9-1.1,11.2-3.1,15.8-6.1,4.6-3,8.4-6.8,11.4-11.4,2.4-3.7,4.2-7.5,5.5-11.3h-24.5c-1,1.6-2.4,3.2-4.2,4.8-1.8,1.5-4.1,2.5-6.8,3-2.6.4-5,.2-7.3-.7-2.3-.9-4.2-2.5-5.6-4.7-.9-1.5-1.7-3.2-2.2-5.2l51.8-9.1c.3-2.1.4-4.3.5-6.8h0ZM660.5,202.5c0-.1,0-.2,0-.3.8-4.1,2.3-7.7,4.6-10.6,2.3-2.9,5.2-4.6,8.7-5.3,2.7-.5,5.1-.2,7.3.7,2.2.9,4,2.4,5.4,4.4,1.3,1.9,2.1,3.9,2.5,6.1l-28.7,5.1h0Z"/>
    <path class="st0" d="M324.4,244.2c-4.1-4.8-9-8.2-14.6-10.2s-11.7-2.4-18.1-1.3c-8,1.4-14.9,4.9-20.8,10.4-5.9,5.5-10.1,12.2-12.6,20-2.5,7.8-3.1,15.5-1.8,23,1.2,7.1,3.9,13.1,8,18.2s9.1,8.7,14.9,10.9c5.8,2.2,12.2,2.7,19.2,1.5,5.9-1,11.2-3.1,15.8-6.1s8.4-6.8,11.4-11.4c2.4-3.7,4.2-7.5,5.5-11.3h-24.5c-1,1.6-2.4,3.2-4.1,4.8s-4.1,2.5-6.8,3c-2.6.5-5,.2-7.3-.7-2.3-.9-4.2-2.5-5.6-4.7-.9-1.5-1.7-3.2-2.2-5.2l51.8-9.1c.3-2,.4-4.3.5-6.8,0-2.5-.1-4.9-.6-7.3-1.2-6.9-3.9-12.7-7.9-17.5h0ZM279.9,269.6c0-.1,0-.2,0-.3.8-4.1,2.3-7.7,4.6-10.6,2.3-2.9,5.2-4.6,8.7-5.3,2.7-.5,5.1-.2,7.3.7,2.2.9,4,2.4,5.4,4.4,1.3,1.9,2.1,3.9,2.5,6l-28.6,5h0Z"/>
  </g>
  <g>
    <g>
      <text class="st1" transform="translate(328.2 461.5)"><tspan x="0" y="0">K</tspan></text>
      <text class="st3" transform="translate(374.7 461.5)"><tspan x="0" y="0">r</tspan></text>
      <text class="st4" transform="translate(400.3 461.5)"><tspan x="0" y="0">e</tspan></text>
      <text class="st4" transform="translate(440.8 461.5)"><tspan x="0" y="0">i</tspan></text>
      <text class="st7" transform="translate(457 461.5)"><tspan x="0" y="0">s</tspan></text>
      <text class="st2" transform="translate(492.7 461.5)"><tspan x="0" y="0">v</tspan></text>
      <text class="st4" transform="translate(529.8 461.5)"><tspan x="0" y="0">e</tspan></text>
      <text class="st5" transform="translate(570.5 461.5)"><tspan x="0" y="0">r</tspan></text>
      <text class="st4" transform="translate(596.4 461.5)"><tspan x="0" y="0">b</tspan></text>
      <text class="st6" transform="translate(639.5 461.5)"><tspan x="0" y="0">a</tspan></text>
      <text class="st4" transform="translate(678.9 461.5)"><tspan x="0" y="0">n</tspan></text>
      <text class="st6" transform="translate(720.2 461.5)"><tspan x="0" y="0">d</tspan></text>
    </g>
    <g>
      <text class="st4" transform="translate(449.9 540.2)"><tspan x="0" y="0">Lüneburg</tspan></text>
      <text/>
    </g>
  </g>
</svg>