<?xml version="1.0" encoding="UTF-8"?>
<svg xmlns="http://www.w3.org/2000/svg" xmlns:xlink="http://www.w3.org/1999/xlink" viewBox="0 0 375 375">
  <defs>
    <style>
      .cls-1 {
        fill: #c7010e;
      }

      .cls-2 {
        fill: #fd0000;
      }

      .cls-3 {
        fill: #e3080f;
      }

      .cls-4, .cls-5 {
        fill: #fff;
      }

      .cls-6 {
        fill: #e2030a;
      }

      .cls-7 {
        fill: #f10003;
      }

      .cls-8 {
        fill: #e2080f;
      }

      .cls-9 {
        fill: none;
      }

      .cls-10 {
        fill: red;
      }

      .cls-11 {
        fill: #85001d;
      }

      .cls-12 {
        fill: #96031b;
      }

      .cls-13 {
        fill: #96021a;
      }

      .cls-14 {
        fill: #c7010d;
      }

      .cls-15 {
        clip-path: url(#clippath-1);
      }

      .cls-16 {
        fill: #95031b;
      }

      .cls-17 {
        fill: #86001c;
      }

      .cls-18 {
        fill: #85021f;
      }

      .cls-19 {
        fill: #95011a;
      }

      .cls-20 {
        fill: #6f003c;
      }

      .cls-5 {
        font-family: WorkSans-Light, 'Work Sans';
        font-size: 15px;
        font-weight: 300;
      }

      .cls-21 {
        fill: #f00003;
      }

      .cls-22 {
        fill: #95021b;
      }

      .cls-23 {
        fill: #c5000d;
      }

      .cls-24 {
        fill: #fefefe;
      }

      .cls-25 {
        fill: #84001d;
      }

      .cls-26 {
        fill: #f60002;
      }

      .cls-27 {
        fill: #e00007;
      }

      .cls-28 {
        fill: #d90009;
      }

      .cls-29 {
        clip-path: url(#clippath);
      }
    </style>
    <clipPath id="clippath">
      <rect class="cls-9" x="34.32" y="29.46" width="308.25" height="287.25"/>
    </clipPath>
    <clipPath id="clippath-1">
      <rect class="cls-9" x="36.09" y="67.14" width="304.69" height="120"/>
    </clipPath>
  </defs>
  <g id="haus">
    <g class="cls-29">
      <path class="cls-20" d="M153.3,315.88h-71.63c-.84.04-1.67,0-2.5-.11-.83-.12-1.64-.32-2.43-.59s-1.55-.63-2.27-1.06c-.72-.43-1.39-.92-2.02-1.48-.62-.56-1.19-1.17-1.69-1.84-.5-.67-.94-1.38-1.3-2.13-.36-.75-.65-1.54-.86-2.35-.21-.81-.34-1.63-.39-2.47v-124.36h-12.18c-13.49,0-20.81-12.71-11.96-20.86L177.33,35.44c.83-.71,1.72-1.33,2.67-1.88.94-.55,1.93-1.01,2.96-1.39,1.03-.37,2.08-.66,3.15-.85,1.08-.19,2.16-.28,3.25-.28,1.09,0,2.18.1,3.25.29,1.07.19,2.12.48,3.15.86,1.02.38,2.01.84,2.95,1.4.94.55,1.83,1.18,2.66,1.89,43.62,41.06,87.27,82.12,130.93,123.19,8.68,8.23,1.37,20.82-12.08,20.82h-12.12v124.32c-.05.84-.18,1.66-.4,2.48-.21.81-.5,1.6-.87,2.35-.37.76-.8,1.47-1.31,2.14-.51.67-1.07,1.29-1.7,1.84-.63.56-1.3,1.05-2.02,1.48s-1.48.78-2.27,1.06c-.79.28-1.6.48-2.43.6s-1.67.16-2.5.12h-71.62"/>
    </g>
  </g>
  <g id="bot">
    <g class="cls-15">
      <g>
        <path class="cls-1" d="M178.97,192.59c7.13-.02,14.28-.02,21.41,0,12.62.03,28.4-1.16,40.59-.02,4.03.38,6.61,2.74,7.16,6.78.82,6.03,0,15.18.04,21.61s-.02,12.95,0,19.42c0,1,0,1.99,0,2.99.08,31.73.04,63.48-.12,95.22-.33,1.98-1.98,4.27-3.69,5.27-3.28,1.92-15.1,1.03-19.59,1.07-6.96.06-13.95-.02-20.91,0-9.78.03-19.59.03-29.37,0-6.96-.02-13.95.06-20.91,0-4.6-.04-13.04.73-17.06-.11-2.7-.56-4.91-3.19-5.73-5.73-.15-32.9-.19-65.81-.11-98.71.01-6.46-.04-12.95,0-19.42s-.81-16.05.04-22.11c.49-3.43,3.21-5.96,6.65-6.29,12.41-1.19,28.72.06,41.6.03ZM149.46,204.66c-3.47,1.11-5.69,3.45-6.35,7.09l.25,77.44c1.78,3.8,4.25,5.62,8.46,5.98,24.01,2.06,50.9-1.59,75.21,0,5.26-.62,8.25-3.4,8.71-8.71,2.02-23.53-1.56-49.89,0-73.72-.23-4.55-3.66-7.98-8.21-8.21l-78.07.13ZM138.15,288.68v34.6c0,3.25,4.19,8.72,6.81,10.62,6.89,4.99,22.11,2.84,30.8,3.05,1.08.03,12.18,1.24,12.18.27-19.45-3.82-35.5-17.41-44.25-34.91l-5.54-13.63Z"/>
        <path class="cls-14" d="M173,100.99c11.1-.07,22.25-.08,33.36,0,4.97.04,12.58-.67,17.14.03,2.05.32,4.46,2.36,5.21,4.25,1.31,3.26.52,14.78.55,19.12.07,9.61.08,19.26,0,28.88-.04,5.3.7,13.24-.03,18.14-.53,3.53-3.16,5.86-6.69,6.26-6.46.72-15.38-.04-22.16,0-7.13.04-14.28.04-21.41,0-6.67-.03-15.86.77-22.17.01-2.06-.25-4.68-2.03-5.6-3.86-1.98-3.91-1.06-15.59-1.11-20.55-.09-9.61-.08-19.27,0-28.88.04-5.05-1.15-17.64,1.99-21.16.68-.76,2.74-2.04,3.77-2.21,4.36-.73,12.32,0,17.15-.03ZM172.87,121.52c-9.5,1.61-7.64,17.47,3.25,15.69,9.63-1.58,8.28-17.65-3.25-15.69ZM203.23,121.52c-11.53,1.94-4.84,20.96,5.78,14.74,7.79-4.56,3.86-16.36-5.78-14.74ZM168.37,149.39c-.57.12-1.56.65-1.89,1.1-.8,1.12-.73,10.78,0,12.02.23.39.94.98,1.38,1.11l43.23.13c1.03.05,2.33-.91,2.61-1.87.57-1.98.99-12.24-2.24-12.48h-43.1Z"/>
        <path class="cls-19" d="M174.49,344.94v81.15c-5.92-3.14-14.98-3.14-20.91,0v-81.15c6.96.06,13.95-.02,20.91,0Z"/>
        <path class="cls-18" d="M130.68,240.39c-10.97,5.95-16.58,19-20.05,30.49-1.47,4.89-2.22,10.29-3.83,15.08-3.64,10.79-12.19,20.67-22.42,25.62-.9-4.36-5.45-11.7-8.96-14.44,9.31-5.69,15-14.4,18.43-24.63,2.42-7.22,3.41-15.17,6.09-22.29,4.99-13.25,18.08-23.7,30.74-29.25-.04,6.46.01,12.95,0,19.42Z"/>
        <path class="cls-18" d="M301.44,296.15c-.06.04-.09.87-.48,1.24-3.79,3.54-6.96,8.57-7.98,13.7-9.62-5.05-18.05-13.89-21.92-24.13-2.16-5.71-2.99-12.16-4.83-18.07-3.35-10.74-8.58-21.92-18.06-28.49-.02-6.46.04-12.95,0-19.42,12.66,5.84,24.96,16.44,29.6,29.89,2.2,6.38,3.16,13.22,5.24,19.65,3.44,10.66,8.74,19.58,18.43,25.63Z"/>
        <path class="cls-6" d="M301.44,296.15c.1-.08.93.02,1.43-.29,9.26-5.84,20.79-6.06,29.44,1.03,3.55,2.91,7.53,7.96,7.71,12.7-14.5-14.09-37.96,1.73-30.01,20.55,1.68,3.97,5.61,8.19,9.85,9.32.02.16,0,.34,0,.5-16.38,2.05-30.11-12.65-26.88-28.88,1.02-5.12,4.19-10.16,7.98-13.7.39-.36.42-1.19.48-1.24Z"/>
        <path class="cls-12" d="M229.25,124.39c3.67-1.65,6.06,3.99,7.3,4.4,2.79.93,4.93-1.06,7.24,3.21,1.6,2.95,1.56,12.63-.9,15.24-2.64,2.8-5.72,1.37-7.07,2.14-.22.13-.82,1.8-1.38,2.35-1.34,1.34-3.35,1.72-5.19,1.53.08-9.61.07-19.26,0-28.88Z"/>
        <path class="cls-12" d="M200.38,177.66v14.94c-7.13-.02-14.28-.02-21.41,0v-14.94c7.13.04,14.28.04,21.41,0Z"/>
        <path class="cls-16" d="M150.1,124.39c-.08,9.61-.09,19.27,0,28.88-3.6.97-4.78-3.52-5.98-4.26s-4.63,1.12-7.18-2.74c-2.3-3.48-2.26-13.96,1.74-16.63,2.72-1.81,5.71-.57,5.93-.78.07-.06.05-1.12.49-1.74,1.07-1.48,3.04-3.02,5-2.73Z"/>
        <path class="cls-13" d="M200.88,93.03c.17.09,2.79,2.28,2.99,2.49,1.25,1.3,2.08,3.73,2.49,5.48-11.1-.08-22.25-.07-33.36,0-.15-1.47,1-4.51,1.99-5.48.15-.15,3.3-2.39,3.48-2.49,5.13-2.73,17.28-2.73,22.4,0Z"/>
        <path class="cls-8" d="M203.86,95.51c-.2-.21-2.82-2.4-2.99-2.49l13.17-17.44c.85-2.13-.5-3.94,1.26-6.21,3.86-4.98,11.22,1.01,7.41,5.91-1.58,2.03-3.89,1.3-5.15,2.32l-13.7,17.91Z"/>
        <path class="cls-3" d="M178.47,93.03c-.19.1-3.33,2.34-3.48,2.49l-13.2-17.91c-1.26-1.02-3.57-.29-5.15-2.32-3.92-5.04,3.58-10.84,7.41-5.91,1.76,2.27.41,4.08,1.26,6.21l13.17,17.44Z"/>
        <path class="cls-6" d="M75.42,297.14c3.51,2.74,8.07,10.08,8.96,14.44.61,2.98.38,7-.22,9.98-2.47,12.17-14.06,20.46-26.41,19.39l7.22-6.23c10.72-14.96-3.27-34.7-21.18-28.65-2.79.94-4.71,2.82-7.19,4.26,4.07-14.03,18.58-21.7,32.49-16.57,1.34.49,5.28,2.55,6.34,3.37Z"/>
        <path class="cls-22" d="M224.77,344.94v81.15c-3.79-2.06-8.84-2.87-13.13-2.43-1.06.11-7.04,1.55-7.78,1.93v-80.65c6.96-.02,13.95.06,20.91,0Z"/>
        <path class="cls-24" d="M292.98,311.08c-3.23,16.23,10.51,30.92,26.88,28.88-.02.47-.33,1.89-.83,2.01-6.11.35-11.18-1.46-16.25-4.59-6.73-4.16-10.89-11.19-11.79-19.08-.25-2.17.43-4.46-.37-6.6-.6-1.29-6.33-4.21-7.86-5.58-19.57-17.45-13.49-40.96-28.85-58.27-1.37-1.54-3.65-4.29-5.73-4.47,0-1,0-1.99,0-2.99,9.48,6.58,14.7,17.76,18.06,28.49,1.84,5.91,2.68,12.35,4.83,18.07,3.87,10.24,12.29,19.09,21.92,24.13Z"/>
        <path class="cls-2" d="M138.15,288.68l5.54,13.63c8.76,17.49,24.8,31.09,44.25,34.91,0,.97-11.1-.24-12.18-.27-8.69-.21-23.92,1.94-30.8-3.05-2.62-1.9-6.81-7.37-6.81-10.62v-34.6Z"/>
        <path class="cls-28" d="M149.46,204.66l78.07-.13c4.56.23,7.98,3.66,8.21,8.21-1.57,23.83,2.02,50.19,0,73.72-.46,5.31-3.45,8.1-8.71,8.71-24.31-1.6-51.21,2.06-75.21,0-4.21-.36-6.68-2.18-8.46-5.98l-.25-77.44c.66-3.65,2.88-5.99,6.35-7.09ZM149.46,206.15c-2.6.81-4.52,2.82-4.85,5.6l.25,77.44c.68,2,2.07,3.17,3.97,3.99,26.69.94,53.7.47,80.44.24,2.68-1.16,5.06-3.33,4.98-6.47-1.62-23.94,2.1-50.6,0-74.22-.26-2.96-1.26-5.16-4.14-6.32l-80.65-.27Z"/>
        <path class="cls-28" d="M168.37,149.39h43.1c3.23.25,2.81,10.51,2.24,12.48-.27.96-1.58,1.92-2.61,1.87l-43.23-.13c-.44-.13-1.15-.72-1.38-1.11-.74-1.24-.8-10.89,0-12.02.32-.45,1.32-.98,1.89-1.1ZM167.52,162.23h44.06l.75-.75v-9.96l-.75-.75h-43.31l-.75.75v10.7Z"/>
        <path class="cls-21" d="M172.87,121.52c11.53-1.96,12.88,14.11,3.25,15.69-10.89,1.78-12.75-14.07-3.25-15.69ZM174.32,122.57c-7.56.21-8.68,12.04-1.04,13.24,10.43,1.63,10.67-13.5,1.04-13.24Z"/>
        <path class="cls-7" d="M203.23,121.52c9.64-1.62,13.57,10.18,5.78,14.74-10.62,6.22-17.32-12.8-5.78-14.74ZM204.74,122.52c-8.84.48-8.42,14.88,1.84,13.29,7.79-1.21,6.47-13.74-1.84-13.29Z"/>
        <path class="cls-11" d="M149.46,206.15l80.65.27c2.87,1.15,3.87,3.36,4.14,6.32,2.09,23.61-1.63,50.28,0,74.22.08,3.14-2.3,5.31-4.98,6.47-26.74.23-53.75.71-80.44-.24-1.9-.82-3.3-1.99-3.97-3.99l-.25-77.44c.34-2.78,2.25-4.79,4.85-5.6ZM162.41,216.61c-2.36.39-4.53,2.08-4.87,4.59-1.14,8.33.87,19.26.05,27.87.72,2.59,2.53,4.04,5.18,4.28,16.89,1.56,36.16-1.22,53.31-.01,2.81-.39,4.49-2.47,4.74-5.21.57-6.18.7-20.88-.01-26.92-.39-3.31-3.19-4.47-6.21-4.74-16.56-1.46-35.38,1.04-52.18.14ZM229.25,260.8h-79.66v3.98h79.66v-3.98ZM157.94,270.86c-1.99.32-4.52,2.66-4.83,4.65-1.11,6.99,7.86,10,11.13,4.16,2.51-4.47-1.37-9.61-6.3-8.81ZM172.87,270.87c-6.47,1.13-6.18,11.06.43,11.8,9.14,1.01,8.83-13.41-.43-11.8ZM188.3,270.87c-6.38,1.11-6.35,11.04.43,11.8,9.14,1.01,8.83-13.41-.43-11.8ZM203.23,270.87c-8.27,1.67-3.69,15.9,4.59,11.07,5.95-3.47,2.34-12.47-4.59-11.07ZM218.68,270.86c-7.48,1.22-5.78,13.47,2.75,11.73,6.83-1.39,5.45-13.06-2.75-11.73Z"/>
        <polygon class="cls-25" points="167.52 162.23 167.52 151.52 168.27 150.78 211.58 150.78 212.33 151.52 212.33 161.48 211.58 162.23 167.52 162.23"/>
        <path class="cls-17" d="M174.32,122.57c9.62-.26,9.38,14.86-1.04,13.24-7.64-1.19-6.51-13.03,1.04-13.24Z"/>
        <path class="cls-17" d="M204.74,122.52c8.3-.45,9.63,12.08,1.84,13.29-10.25,1.59-10.67-12.81-1.84-13.29Z"/>
        <path class="cls-26" d="M162.41,216.61c16.79.9,35.61-1.6,52.18-.14,3.03.27,5.82,1.43,6.21,4.74.71,6.04.58,20.74.01,26.92-.25,2.74-1.93,4.82-4.74,5.21-17.15-1.21-36.41,1.57-53.31.01-2.65-.24-4.46-1.7-5.18-4.28.82-8.62-1.19-19.55-.05-27.87.34-2.5,2.51-4.19,4.87-4.59Z"/>
        <rect class="cls-23" x="149.6" y="260.8" width="79.66" height="3.98"/>
        <path class="cls-27" d="M203.23,270.87c6.93-1.4,10.54,7.6,4.59,11.07-8.28,4.83-12.86-9.4-4.59-11.07Z"/>
        <path class="cls-27" d="M188.3,270.87c9.26-1.61,9.57,12.81.43,11.8-6.79-.75-6.81-10.69-.43-11.8Z"/>
        <path class="cls-27" d="M218.68,270.86c8.2-1.34,9.58,10.33,2.75,11.73-8.53,1.74-10.23-10.5-2.75-11.73Z"/>
        <path class="cls-27" d="M172.87,270.87c9.26-1.61,9.57,12.81.43,11.8-6.61-.73-6.9-10.67-.43-11.8Z"/>
        <path class="cls-27" d="M157.94,270.86c4.93-.8,8.81,4.34,6.3,8.81-3.28,5.84-12.24,2.83-11.13-4.16.31-1.99,2.84-4.33,4.83-4.65Z"/>
      </g>
    </g>
  </g>
  <g id="text">
    <g>
      <text class="cls-5" transform="translate(187.5 281.4)"><tspan x="0" y="0">K</tspan></text>
      <text class="cls-5" transform="translate(196.65 281.4)"><tspan x="0" y="0">V</tspan></text>
      <text class="cls-5" transform="translate(210 281.4)"><tspan x="0" y="0">L</tspan></text>
      <text class="cls-5" transform="translate(218.23 281.4)"><tspan x="0" y="0">ü</tspan></text>
      <text class="cls-5" transform="translate(227.11 281.4)"><tspan x="0" y="0">n</tspan></text>
      <text class="cls-5" transform="translate(236.08 281.4)"><tspan x="0" y="0">e</tspan></text>
      <text class="cls-5" transform="translate(244.44 281.4)"><tspan x="0" y="0">b</tspan></text>
      <text class="cls-5" transform="translate(253.54 281.4)"><tspan x="0" y="0">u</tspan></text>
      <text class="cls-5" transform="translate(262.42 281.4)"><tspan x="0" y="0">r</tspan></text>
      <text class="cls-5" transform="translate(267.77 281.4)"><tspan x="0" y="0">g</tspan></text>
      <text class="cls-5" transform="translate(187.5 301.4)"><tspan x="0" y="0">L</tspan></text>
      <text class="cls-5" transform="translate(195.58 301.4)"><tspan x="0" y="0">e</tspan></text>
      <text class="cls-5" transform="translate(203.94 301.4)"><tspan x="0" y="0">e</tspan></text>
      <text class="cls-5" transform="translate(212.29 301.4)"><tspan x="0" y="0">r</tspan></text>
      <text class="cls-5" transform="translate(217.71 301.4)"><tspan x="0" y="0">s</tspan></text>
      <text class="cls-5" transform="translate(225.28 301.4)"><tspan x="0" y="0">t</tspan></text>
      <text class="cls-5" transform="translate(230.94 301.4)"><tspan x="0" y="0">a</tspan></text>
      <text class="cls-5" transform="translate(239.08 301.4)"><tspan x="0" y="0">n</tspan></text>
      <text class="cls-5" transform="translate(248.05 301.4)"><tspan x="0" y="0">d</tspan></text>
      <text class="cls-5" transform="translate(257.15 301.4)"><tspan x="0" y="0">s</tspan></text>
      <text class="cls-5" transform="translate(264.73 301.4)"><tspan x="0" y="0">b</tspan></text>
      <text class="cls-5" transform="translate(273.83 301.4)"><tspan x="0" y="0">o</tspan></text>
      <text class="cls-5" transform="translate(282.47 301.4)"><tspan x="0" y="0">t</tspan></text>
    </g>
  </g>
  <g id="logo">
    <g>
      <polygon class="cls-10" points="308.09 241.29 68.21 283.58 68.21 206.63 308.09 164.34 308.09 241.29"/>
      <path class="cls-4" d="M89.35,261.63l-.02-38,10.53-1.85c3.36-.6,6.43-.36,9.19.72,2.76,1.08,5.04,2.71,6.84,4.92s2.97,4.8,3.48,7.75c.62,3.5.36,6.98-.79,10.43-1.15,3.43-3.05,6.4-5.71,8.88s-5.85,4.05-9.62,4.7l-13.89,2.45h0ZM102.3,250.38c1.73-.31,3.21-1.13,4.46-2.45,1.25-1.32,2.13-2.93,2.64-4.8s.58-3.74.26-5.61c-.26-1.51-.79-2.83-1.54-3.98-.77-1.15-1.78-2.02-3-2.57-1.25-.55-2.57-.72-4.01-.46l-2.16.38-.05,20.1,3.38-.62h0Z"/>
      <path class="cls-4" d="M123.05,255.68l-.05-27.73,8.68-1.54.05,27.73-8.68,1.54ZM127.8,224.24c-1.37.24-2.54,0-3.53-.72s-1.58-1.68-1.8-2.93c-.17-.91-.1-1.8.19-2.69s.84-1.63,1.61-2.23,1.63-.98,2.59-1.15c1.27-.22,2.4.02,3.41.72,1.01.72,1.63,1.66,1.82,2.85.17.96.1,1.87-.24,2.76s-.89,1.63-1.63,2.25c-.72.6-1.54.96-2.42,1.13Z"/>
      <path class="cls-4" d="M172.3,247l-.02-38,9.57-1.68.05,28.55,14.9-2.64-.02,9.45-24.47,4.32h0Z"/>
      <path class="cls-4" d="M212.98,239.83l-.05-27.73,6.31-1.1,1.25,2.45.26-.05c.6-1.13,1.44-2.09,2.52-2.93,1.08-.82,2.37-1.37,3.84-1.63,2.18-.38,4.1-.17,5.76.65s2.93,2.09,3.81,3.81,1.34,3.77,1.34,6.12v16.02l-8.9,1.56-.02-15.26c-.05-.86-.22-1.66-.5-2.35-.29-.72-.74-1.22-1.39-1.54-.62-.31-1.37-.41-2.21-.26-.62.12-1.22.36-1.8.77-.55.41-.96.98-1.22,1.7-.24.74-.38,1.51-.38,2.35l.02,15.9-8.64,1.51h0Z"/>
      <polygon class="cls-4" points="266.88 230.35 258.51 217.66 266.26 202.72 256.42 204.45 250.4 216.42 250.43 195.23 241.74 196.77 241.72 234.77 250.4 233.23 250.4 221.14 257.17 232.03 266.88 230.35"/>
      <path class="cls-4" d="M200.27,242.08l-.05-27.73,8.68-1.54.05,27.73-8.68,1.54Z"/>
      <polygon class="cls-4" points="193.31 204.54 203.96 210.3 216.46 191.01 193.31 204.54"/>
      <path class="cls-4" d="M152.24,241.87c-.34.58-.82,1.1-1.42,1.63-.62.53-1.39.86-2.35,1.03-.89.14-1.73.07-2.52-.24s-1.44-.84-1.92-1.61c-.31-.5-.58-1.1-.77-1.8l17.73-3.12c.1-.7.14-1.49.17-2.33.02-.86-.05-1.68-.19-2.49-.41-2.35-1.32-4.37-2.71-6-1.39-1.66-3.07-2.83-5.01-3.5-1.94-.7-4.01-.84-6.19-.46-2.73.48-5.11,1.68-7.12,3.57-2.02,1.9-3.45,4.17-4.34,6.84-.86,2.66-1.08,5.3-.62,7.89.43,2.42,1.34,4.51,2.76,6.24,1.42,1.75,3.12,3,5.11,3.74s4.2.91,6.57.5c2.04-.36,3.84-1.06,5.42-2.09,1.58-1.03,2.88-2.35,3.89-3.91.84-1.27,1.46-2.57,1.9-3.89l-8.37-.02h0ZM144.61,231.89c.79-.98,1.8-1.58,3-1.8.91-.17,1.75-.07,2.52.24s1.37.82,1.85,1.49c.43.62.72,1.32.86,2.06l-9.81,1.73.02-.12c.24-1.42.77-2.61,1.56-3.6h0Z"/>
      <path class="cls-4" d="M291.4,209.94c-.41-2.35-1.32-4.37-2.71-6-1.39-1.66-3.07-2.83-5.01-3.5-1.94-.7-4.01-.84-6.19-.46-2.73.48-5.11,1.68-7.12,3.57-2.02,1.9-3.45,4.17-4.34,6.84-.86,2.66-1.08,5.3-.62,7.89.43,2.42,1.34,4.51,2.76,6.24,1.42,1.75,3.12,3,5.11,3.74s4.2.91,6.57.5c2.04-.36,3.84-1.06,5.42-2.09,1.58-1.03,2.88-2.35,3.89-3.91.84-1.27,1.46-2.57,1.9-3.89h-8.4c-.34.58-.82,1.08-1.39,1.61-.62.53-1.39.86-2.35,1.03-.89.14-1.73.07-2.52-.24s-1.44-.84-1.92-1.61c-.31-.5-.58-1.1-.77-1.8l17.73-3.12c.1-.7.14-1.49.17-2.33.02-.86-.05-1.68-.19-2.49ZM273.45,212.6l.02-.12c.24-1.39.77-2.61,1.56-3.6h0c.79-.98,1.8-1.58,3-1.8.91-.17,1.75-.07,2.52.24s1.37.82,1.85,1.49c.43.62.72,1.32.86,2.06l-9.81,1.73Z"/>
    </g>
  </g>
</svg>